<?xml version="1.0" standalone="no"?>
<!DOCTYPE svg PUBLIC "-//W3C//DTD SVG 20010904//EN" "http://www.w3.org/TR/2001/REC-SVG-20010904/DTD/svg10.dtd">
<svg xmlns="http://www.w3.org/2000/svg" version="1.0" width="499.000000pt" height="499.000000pt" viewBox="0 0 499.000000 499.000000" preserveAspectRatio="xMidYMid meet">
<metadata>
Created by potrace 1.16, written by Peter Selinger 2001-2019
<meta name="Producer" content="Online-Convert"/></metadata>
<g transform="translate(0.000000,499.000000) scale(0.100000,-0.100000)" fill="#000000" stroke="none">
<path d="M1260 4170 c0 -5 -10 -10 -23 -10 -13 0 -33 -13 -47 -30 -27 -33 -40 -38 -40 -16 0 18 -22 26 -70 26 -21 0 -42 5 -45 10 -3 6 -48 10 -101 10 -56 0 -94 -4 -94 -10 0 -5 -18 -10 -40 -10 -29 0 -42 -5 -50 -20 -6 -11 -20 -20 -30 -20 -11 0 -20 -4 -20 -10 0 -5 -7 -10 -15 -10 -8 0 -15 -6 -15 -13 0 -7 -9 -18 -20 -25 -11 -7 -20 -21 -20 -33 0 -11 -4 -17 -10 -14 -6 4 -10 -20 -10 -63 0 -55 -3 -71 -16 -76 -9 -4 -14 -13 -10 -21 6 -18 -27 -55 -49 -55 -8 0 -15 -4 -15 -10 0 -5 -9 -10 -20 -10 -11 0 -20 -7 -20 -15 0 -8 -7 -15 -15 -15 -8 0 -15 -5 -15 -10 0 -6 -18 -28 -40 -49 -22 -21 -40 -45 -40 -54 0 -10 -7 -17 -15 -17 -8 0 -15 -7 -15 -15 0 -9 -7 -18 -15 -21 -8 -4 -15 -17 -15 -30 0 -13 -4 -24 -10 -24 -5 0 -10 -9 -10 -20 0 -10 -9 -24 -21 -31 -14 -7 -19 -17 -16 -29 3 -11 -1 -24 -9 -31 -8 -6 -14 -28 -14 -48 0 -20 -5 -42 -11 -48 -14 -14 -24 -379 -14 -535 l7 -118 153 0 c92 0 156 -4 160 -10 3 -5 37 -10 74 -10 60 0 69 -2 74 -20 3 -12 14 -20 26 -20 12 0 21 -4 21 -10 0 -5 5 -10 11 -10 21 0 39 -29 39 -64 0 -20 4 -36 10 -36 5 0 14 -18 20 -40 6 -22 15 -40 20 -40 6 0 10 -9 10 -20 0 -11 5 -20 10 -20 6 0 10 -9 10 -20 0 -11 6 -23 14 -26 8 -3 17 -16 20 -30 4 -13 11 -24 16 -24 6 0 10 -5 10 -11 0 -11 60 -69 72 -69 5 0 8 -5 8 -11 0 -7 8 -18 18 -25 16 -13 16 -13 0 -14 -10 0 -18 5 -18 10 0 6 -7 10 -15 10 -8 0 -15 6 -15 14 0 8 -9 18 -20 21 -11 3 -20 11 -20 16 0 5 -7 9 -16 9 -9 0 -27 11 -40 25 -33 36 -94 32 -94 -6 0 -10 -4 -19 -10 -19 -5 0 -10 -7 -10 -15 0 -8 -9 -19 -20 -25 -10 -6 -17 -16 -14 -24 3 -7 -2 -16 -10 -19 -9 -4 -16 -17 -16 -31 0 -13 -3 -26 -7 -28 -14 -6 -53 -67 -53 -83 0 -8 -4 -15 -10 -15 -5 0 -10 -9 -10 -21 0 -12 -13 -41 -30 -66 -16 -24 -30 -53 -30 -64 0 -10 -4 -19 -10 -19 -5 0 -10 -11 -10 -24 0 -13 -7 -26 -15 -30 -9 -3 -15 -18 -15 -40 0 -21 -6 -36 -15 -40 -9 -3 -15 -19 -15 -41 0 -19 -4 -35 -10 -35 -5 0 -10 -24 -10 -54 l0 -55 43 -3 c27 -2 41 -7 39 -15 -1 -9 12 -13 42 -13 26 0 51 -6 60 -15 9 -9 33 -15 60 -15 25 0 46 -4 46 -10 0 -5 18 -10 40 -10 29 0 40 -4 40 -15 0 -11 12 -15 45 -15 31 0 47 -5 51 -15 4 -10 20 -15 45 -15 21 0 39 -4 39 -10 0 -5 18 -10 40 -10 27 0 43 -5 46 -15 4 -9 19 -15 40 -15 22 0 37 -6 40 -15 4 -10 20 -15 50 -15 24 0 44 -4 44 -10 0 -5 14 -10 30 -10 18 0 33 -6 36 -15 4 -9 19 -15 39 -15 19 0 40 -7 49 -15 8 -8 28 -15 45 -15 16 0 33 -5 36 -10 3 -5 21 -10 40 -10 20 0 35 -6 39 -15 3 -9 18 -15 36 -15 18 0 33 -6 36 -15 4 -10 20 -15 46 -15 23 0 37 -4 33 -10 -4 -6 8 -10 29 -10 23 0 43 -7 56 -20 11 -11 31 -20 45 -20 14 0 25 -4 25 -10 0 -5 15 -10 34 -10 19 0 38 -4 41 -10 3 -5 17 -10 31 -10 13 0 33 -9 44 -20 11 -11 33 -20 50 -20 17 0 30 -4 30 -10 0 -5 14 -10 30 -10 17 0 30 -4 30 -10 0 -5 13 -10 28 -10 16 0 39 -9 52 -20 13 -11 33 -20 46 -20 13 0 26 -4 29 -10 3 -5 21 -10 40 -10 18 0 35 -6 38 -12 3 -10 40 -13 142 -13 102 0 139 3 142 13 3 6 18 12 33 12 16 0 32 5 35 10 3 6 16 10 29 10 13 0 31 9 41 20 10 11 29 20 42 20 12 0 23 5 23 10 0 6 16 10 35 10 19 0 35 5 35 10 0 6 13 10 30 10 19 0 33 7 40 20 6 11 21 20 35 20 13 0 27 5 30 10 3 6 19 10 36 10 16 0 29 4 29 10 0 5 15 12 34 16 19 3 37 12 40 20 3 8 19 14 36 14 16 0 30 5 30 10 0 6 14 10 30 10 17 0 30 4 30 9 0 5 14 12 30 16 21 5 30 12 30 27 0 12 8 26 17 33 11 9 18 29 19 61 1 27 7 50 13 52 6 2 11 18 11 37 0 18 7 38 15 45 20 17 20 103 0 124 -8 8 -15 24 -15 35 0 12 -4 21 -10 21 -5 0 -10 5 -10 10 0 6 7 10 15 10 16 0 77 39 83 53 2 4 15 7 28 7 13 0 24 5 24 10 0 6 9 10 20 10 11 0 23 7 26 15 6 15 98 65 120 65 7 0 16 9 19 20 3 11 15 20 26 20 10 0 19 5 19 10 0 6 8 10 18 10 9 0 28 14 42 30 14 17 30 30 37 30 7 0 13 5 13 10 0 6 5 10 11 10 17 0 59 36 52 44 -4 4 3 9 15 13 12 3 22 9 22 14 0 5 11 9 24 9 13 0 26 7 30 15 3 8 14 15 25 15 10 0 21 7 25 15 3 8 17 15 31 15 14 0 25 5 25 10 0 6 6 10 14 10 8 0 20 14 28 30 10 24 19 30 45 30 18 0 33 5 33 10 0 6 11 10 24 10 13 0 29 7 36 15 7 8 20 15 30 15 10 0 20 7 24 15 3 8 17 15 31 15 14 0 25 5 25 10 0 6 11 10 24 10 13 0 26 7 30 15 3 8 15 15 26 15 11 0 23 7 26 15 4 8 17 15 30 15 13 0 24 5 24 10 0 6 13 10 29 10 16 0 31 6 35 15 3 8 14 15 25 15 32 0 51 11 51 30 0 22 -19 30 -69 30 -20 0 -42 5 -49 12 -9 9 -15 9 -24 0 -8 -8 -60 -12 -169 -12 -87 0 -159 -4 -161 -9 -1 -5 -74 -11 -160 -13 -128 -4 -159 -8 -173 -21 -14 -14 -41 -17 -170 -17 -92 0 -156 -4 -160 -10 -4 -6 -71 -10 -170 -10 -135 0 -164 -3 -169 -15 -4 -12 -32 -15 -166 -15 -136 0 -160 -2 -160 -15 0 -13 -23 -15 -150 -15 -93 0 -150 -4 -150 -10 0 -5 -20 -10 -45 -10 -33 0 -45 -4 -45 -15 0 -9 -9 -15 -25 -15 -21 0 -25 -5 -25 -30 0 -29 1 -30 49 -30 28 0 53 -4 56 -10 3 -5 24 -10 46 -10 26 0 42 -5 45 -15 4 -9 19 -15 38 -15 18 0 41 -7 52 -15 10 -8 38 -15 61 -15 23 0 45 -4 48 -10 3 -5 24 -10 46 -10 26 0 42 -5 45 -15 4 -8 17 -15 30 -15 18 0 24 -5 24 -23 0 -22 13 -33 72 -57 15 -7 30 -20 33 -29 7 -22 -4 -53 -16 -45 -5 3 -9 -4 -9 -15 0 -37 -26 -52 -84 -45 -41 5 -55 3 -65 -10 -10 -12 -32 -16 -92 -16 -43 0 -81 -4 -84 -10 -3 -5 -36 -10 -72 -10 -50 0 -71 -5 -90 -20 -20 -15 -41 -20 -89 -20 -36 0 -64 -4 -64 -10 0 -6 -28 -10 -65 -10 -37 0 -65 -4 -65 -10 0 -6 -28 -10 -65 -10 -52 0 -69 -4 -85 -20 -15 -15 -33 -20 -70 -20 -27 0 -50 -4 -50 -10 0 -5 -25 -10 -55 -10 -30 0 -55 -4 -55 -10 0 -5 -25 -10 -55 -10 -44 0 -56 -4 -65 -20 -8 -14 -21 -20 -45 -20 -19 0 -35 4 -35 9 0 13 -68 51 -91 51 -11 0 -17 -4 -14 -10 4 -6 -8 -10 -28 -10 -31 0 -34 2 -29 25 6 32 -6 78 -18 70 -6 -3 -10 2 -10 12 -1 22 -23 53 -39 53 -6 0 -11 5 -11 10 0 6 -5 10 -10 10 -12 0 -32 15 -58 43 -9 9 -29 17 -44 17 -16 0 -28 5 -28 10 0 6 -7 10 -15 10 -8 0 -15 5 -15 10 0 11 -36 50 -46 50 -8 0 -34 27 -34 37 0 8 -29 26 -62 39 -10 3 -18 11 -18 16 0 14 83 3 88 -11 2 -7 54 -11 147 -11 114 0 145 3 155 15 7 9 29 15 51 15 28 0 39 4 39 15 0 9 9 15 25 15 14 0 25 5 25 10 0 6 7 10 16 10 8 0 29 13 47 30 18 16 37 30 43 30 7 0 14 8 18 18 8 24 27 53 52 78 12 11 25 35 29 52 3 18 11 32 16 32 5 0 9 29 9 65 0 54 -3 66 -20 75 -15 8 -21 6 -30 -9 -5 -11 -10 -26 -10 -34 0 -8 -7 -20 -15 -27 -8 -6 -13 -15 -12 -19 5 -16 -131 -151 -152 -151 -6 0 -11 -6 -11 -12 0 -13 -44 -38 -66 -38 -6 0 -14 -7 -18 -15 -3 -9 -18 -15 -36 -15 -20 0 -30 -5 -30 -15 0 -22 -305 -22 -314 0 -3 8 -17 15 -31 15 -14 0 -28 7 -31 15 -4 9 -19 15 -35 15 -16 0 -29 5 -29 10 0 6 -5 10 -10 10 -6 0 -19 8 -29 18 -37 32 -50 42 -61 42 -5 0 -10 5 -10 10 0 6 -7 10 -15 10 -8 0 -15 5 -15 10 0 6 -18 28 -40 49 -22 21 -40 43 -40 49 0 7 -4 12 -10 12 -5 0 -10 9 -10 20 0 11 -7 20 -15 20 -8 0 -15 9 -15 20 0 11 -4 20 -9 20 -13 0 -41 59 -41 87 0 14 -6 23 -15 23 -9 0 -15 9 -15 25 0 14 7 28 15 31 8 4 15 13 15 21 0 7 10 24 23 37 32 34 57 65 57 72 0 10 93 94 104 94 6 1 22 14 36 30 13 17 30 30 37 30 7 0 13 5 13 10 0 6 9 10 19 10 10 0 21 7 25 15 3 8 12 15 21 15 8 0 15 7 15 15 0 9 9 15 25 15 14 0 25 5 25 10 0 6 11 10 24 10 13 0 26 7 30 15 3 8 17 15 31 15 14 0 28 7 31 15 4 9 19 15 41 15 20 0 32 4 28 10 -4 6 10 10 33 10 26 0 42 5 46 15 4 11 20 15 56 15 35 0 49 4 47 13 -1 8 21 14 73 18 41 3 71 7 65 9 -5 2 13 6 40 9 l50 6 3 43 c2 33 0 42 -12 42 -14 0 -16 39 -16 345 0 298 -2 346 -15 351 -10 4 -15 20 -15 45 0 25 -5 39 -13 39 -7 0 -21 14 -31 30 -9 17 -22 28 -27 25 -5 -4 -9 1 -9 9 0 9 -7 16 -15 16 -8 0 -15 5 -15 10 0 6 -6 10 -13 10 -8 0 -22 9 -32 20 -10 11 -24 20 -32 20 -7 0 -13 5 -13 10 0 6 -13 10 -30 10 -16 0 -30 5 -30 10 0 6 -53 10 -140 10 -87 0 -140 -4 -140 -10z m190 -110 c0 -5 14 -10 30 -10 18 0 33 -6 36 -15 4 -8 14 -15 24 -15 10 0 23 -7 30 -15 7 -8 19 -15 26 -15 8 0 14 -4 14 -10 0 -5 5 -10 10 -10 17 0 50 -39 50 -58 0 -10 4 -22 10 -28 5 -5 10 -89 12 -187 l3 -177 -86 0 c-68 0 -88 -3 -93 -15 -4 -11 -20 -15 -55 -15 -31 0 -55 -6 -65 -15 -8 -8 -30 -15 -50 -15 -19 0 -38 -4 -41 -10 -3 -5 -20 -10 -36 -10 -16 0 -32 -6 -35 -14 -3 -8 -16 -17 -30 -20 -13 -4 -24 -11 -24 -16 0 -6 -11 -10 -25 -10 -14 0 -25 -4 -25 -10 0 -5 -9 -10 -20 -10 -10 0 -24 -9 -30 -20 -6 -11 -17 -20 -25 -20 -8 0 -15 -4 -15 -10 0 -5 -7 -10 -15 -10 -8 0 -15 -4 -15 -10 0 -5 -5 -10 -11 -10 -15 0 -149 -135 -149 -149 0 -6 -4 -11 -10 -11 -5 0 -10 -6 -10 -14 0 -7 -13 -23 -30 -36 -18 -14 -30 -32 -30 -46 0 -13 -3 -24 -8 -24 -4 0 -19 -21 -32 -47 -14 -27 -28 -49 -32 -51 -5 -2 -8 -17 -8 -33 0 -16 -4 -29 -10 -29 -5 0 -10 -11 -10 -25 0 -28 -20 -75 -32 -75 -4 0 -8 5 -8 10 0 6 -46 10 -119 10 -96 0 -120 3 -125 15 -4 11 -21 15 -66 15 l-60 0 0 39 c0 25 5 41 15 45 12 4 15 26 15 106 0 80 3 102 15 106 11 5 15 22 15 69 0 35 5 67 10 70 6 3 10 28 10 56 0 37 4 49 15 49 10 0 15 10 15 34 0 42 15 54 30 26 6 -12 21 -20 35 -20 14 0 25 -4 25 -10 0 -5 13 -10 29 -10 17 0 33 -4 36 -10 3 -5 16 -10 29 -10 13 0 31 -9 41 -20 13 -15 31 -20 67 -20 26 0 48 -4 48 -10 0 -6 35 -10 86 -10 l85 0 -3 43 -3 42 -52 3 c-29 2 -53 7 -53 13 0 5 -18 9 -40 9 -22 0 -40 4 -40 10 0 5 -15 12 -34 16 -19 3 -37 12 -40 20 -3 8 -19 14 -36 14 -16 0 -30 5 -30 10 0 6 -11 10 -25 10 -15 0 -25 6 -25 14 0 7 -9 16 -20 19 -27 7 -38 37 -17 49 10 5 17 14 17 19 0 16 54 89 66 89 6 0 21 19 34 43 18 30 25 37 28 25 2 -11 13 -18 28 -18 20 0 24 5 24 30 0 17 9 37 21 49 13 12 19 26 15 36 -3 9 0 18 9 21 8 4 15 15 15 25 0 19 7 30 43 70 9 10 17 24 17 29 0 6 7 10 15 10 8 0 15 5 15 10 0 6 55 10 145 10 90 0 145 -4 145 -10 0 -5 16 -10 35 -10 19 0 35 -5 35 -11 0 -5 14 -15 30 -20 17 -6 30 -15 30 -20 0 -5 9 -9 21 -9 11 0 18 -4 14 -9 -3 -5 5 -11 17 -13 13 -2 22 -9 21 -16 -2 -6 4 -12 12 -12 16 0 75 -54 75 -70 0 -5 6 -10 14 -10 7 0 16 -8 20 -17 8 -24 27 -53 52 -77 12 -12 24 -31 28 -43 5 -16 15 -23 32 -23 21 0 24 4 24 40 0 29 -4 40 -15 40 -9 0 -15 6 -14 13 3 27 -2 47 -12 47 -17 0 -39 27 -39 50 0 11 -7 23 -15 26 -8 4 -15 12 -15 20 0 8 -4 14 -9 14 -5 0 -13 9 -16 20 -4 11 -39 52 -78 90 -59 58 -68 70 -49 70 12 0 22 5 22 10 0 6 28 10 65 10 37 0 65 -4 65 -10z m243 -722 l-2 -93 -35 -3 c-20 -2 -36 -7 -36 -13 0 -5 -27 -9 -60 -9 -33 0 -60 -4 -60 -9 0 -4 -16 -11 -35 -14 -19 -3 -42 -13 -51 -21 -8 -9 -26 -16 -40 -16 -13 0 -24 -4 -24 -10 0 -5 -11 -10 -24 -10 -13 0 -26 -5 -28 -12 -2 -6 -15 -13 -28 -15 -14 -2 -28 -10 -33 -18 -4 -8 -15 -15 -22 -15 -8 0 -15 -4 -15 -10 0 -5 -9 -10 -20 -10 -12 0 -34 -13 -50 -30 -16 -16 -34 -30 -40 -30 -5 0 -10 -4 -10 -10 0 -5 -6 -10 -12 -10 -7 -1 -24 -14 -38 -30 -13 -17 -28 -30 -34 -30 -5 0 -31 -22 -58 -50 -27 -27 -52 -50 -57 -50 -4 0 -14 -12 -22 -27 -8 -15 -34 -47 -57 -72 -34 -34 -46 -41 -53 -30 -10 17 -1 58 17 80 8 8 14 22 14 30 0 25 24 69 38 69 6 0 12 11 12 24 0 13 7 26 15 30 8 3 15 15 15 26 0 11 5 20 10 20 6 0 10 5 10 10 0 6 8 19 18 30 9 10 27 31 40 44 12 14 22 32 22 41 0 8 7 15 15 15 8 0 15 5 15 10 0 6 6 10 13 10 6 1 23 14 37 30 13 17 30 30 37 30 7 0 13 5 13 10 0 6 5 10 10 10 6 0 19 8 29 18 39 34 50 42 66 42 8 0 15 5 15 10 0 6 9 10 19 10 11 0 23 5 26 10 10 16 86 50 112 50 13 0 23 5 23 10 0 6 18 10 40 10 28 0 45 6 57 20 14 16 30 20 80 20 35 0 63 4 63 10 0 6 15 10 33 10 l32 0 -2 -92z m2152 -1208 c-4 -6 -60 -10 -134 -10 -102 0 -131 -3 -141 -15 -10 -12 -40 -15 -146 -15 -102 0 -133 -3 -131 -12 3 -20 -150 -23 -193 -4 -35 15 -34 15 53 16 51 0 87 4 87 10 0 6 57 10 151 10 120 0 153 3 165 15 12 12 44 15 155 15 91 0 138 -4 134 -10z m-2875 -110 c0 -5 14 -10 30 -10 18 0 33 -6 36 -15 4 -8 13 -15 20 -15 8 0 17 -7 20 -15 4 -8 15 -15 25 -15 10 0 19 -4 19 -10 0 -5 6 -10 13 -10 7 0 23 -13 37 -30 14 -16 30 -30 36 -30 6 0 24 -12 40 -27 16 -15 32 -26 37 -25 4 1 7 -5 7 -13 0 -8 5 -15 11 -15 13 0 49 -38 49 -52 0 -5 5 -6 10 -3 6 3 13 -1 16 -9 3 -9 17 -16 30 -16 13 0 24 -4 24 -10 0 -5 9 -10 20 -10 10 0 24 -9 30 -20 6 -11 16 -20 22 -20 27 0 48 -34 48 -76 0 -40 -5 -49 -66 -109 -76 -77 -80 -98 -16 -103 31 -2 42 0 40 10 -2 8 9 14 30 16 17 2 32 7 32 13 0 5 13 9 29 9 16 0 34 7 41 15 18 22 30 19 30 -7 0 -13 7 -31 14 -40 16 -22 74 -24 82 -3 4 8 19 15 34 15 16 0 32 5 35 10 3 6 24 10 46 10 26 0 42 5 45 15 4 11 21 15 55 15 37 0 49 4 49 15 0 12 13 15 55 15 30 0 55 5 55 10 0 6 28 10 64 10 48 0 65 4 70 15 4 11 21 15 66 15 45 0 62 4 66 15 5 11 23 15 75 15 39 0 69 4 69 10 0 6 25 10 56 10 31 0 70 6 87 14 18 8 61 16 96 19 35 3 68 10 74 16 14 14 157 15 157 0 0 -6 7 -17 15 -25 8 -9 15 -28 15 -44 0 -16 5 -32 10 -35 6 -3 10 -19 10 -35 0 -15 7 -30 15 -34 8 -3 15 -12 15 -20 0 -7 7 -16 15 -20 8 -3 15 -15 15 -26 0 -11 5 -20 10 -20 6 0 10 -6 10 -13 0 -7 14 -27 30 -45 17 -18 30 -37 30 -43 0 -5 5 -9 10 -9 6 0 10 -6 10 -14 0 -8 12 -24 26 -35 l27 -21 -30 0 c-17 0 -36 -7 -43 -15 -7 -8 -25 -15 -41 -15 -19 0 -29 -5 -29 -15 0 -10 -10 -15 -30 -15 -16 0 -30 -4 -30 -10 0 -5 -15 -10 -34 -10 -21 0 -36 -6 -40 -15 -3 -8 -17 -15 -31 -15 -14 0 -28 -7 -31 -15 -4 -9 -19 -15 -35 -15 -16 0 -29 -4 -29 -10 0 -5 -15 -10 -34 -10 -21 0 -36 -6 -40 -15 -3 -9 -18 -15 -36 -15 -20 0 -30 -5 -30 -15 0 -10 -11 -15 -35 -15 -19 0 -35 -4 -35 -10 0 -5 -14 -10 -30 -10 -18 0 -33 -6 -36 -15 -8 -21 -97 -21 -114 0 -7 8 -28 15 -46 15 -19 0 -34 5 -34 10 0 6 -14 10 -30 10 -18 0 -33 6 -36 15 -4 8 -18 15 -34 15 -15 0 -33 7 -40 15 -7 8 -25 15 -41 15 -16 0 -29 5 -29 10 0 6 -16 10 -35 10 -22 0 -38 6 -41 15 -4 8 -18 15 -34 15 -15 0 -33 7 -40 15 -7 8 -28 15 -46 15 -19 0 -34 4 -34 9 0 6 -17 11 -37 13 -24 2 -37 8 -36 16 2 8 -10 12 -37 12 -29 0 -40 4 -40 15 0 11 -11 15 -40 15 -22 0 -40 5 -40 10 0 6 -16 10 -35 10 -22 0 -38 6 -41 15 -4 8 -16 15 -28 15 -12 0 -31 7 -42 15 -10 8 -33 15 -49 15 -17 0 -35 4 -40 9 -6 5 -26 11 -45 13 -21 2 -34 8 -33 16 2 8 -9 12 -32 12 -22 0 -38 6 -41 15 -4 10 -20 15 -45 15 -21 0 -39 5 -39 10 0 6 -13 10 -29 10 -37 0 -62 10 -55 21 3 5 -11 9 -30 9 -19 0 -41 7 -50 15 -8 8 -32 15 -55 15 -23 0 -41 5 -41 10 0 6 -16 10 -35 10 -21 0 -37 6 -43 16 -5 10 -28 18 -55 21 -26 3 -47 10 -47 14 0 5 -20 9 -45 9 -25 0 -45 5 -45 10 0 6 -18 10 -40 10 -27 0 -43 5 -46 15 -3 8 -21 17 -40 21 -30 6 -34 10 -34 39 0 24 5 34 19 38 15 4 19 13 19 38 -1 18 4 35 10 37 7 2 12 17 12 33 0 16 5 29 10 29 6 0 10 9 10 20 0 10 9 24 20 30 15 8 19 17 15 31 -4 13 -2 19 9 19 11 0 16 9 16 29 0 16 6 31 15 35 8 3 15 13 15 23 1 39 24 53 89 53 34 0 61 4 61 10 0 6 16 10 35 10 19 0 35 -4 35 -10z m2870 -3 c-14 -6 -29 -17 -33 -24 -4 -7 -17 -13 -27 -13 -11 0 -20 -4 -20 -10 0 -5 -9 -10 -20 -10 -11 0 -20 -5 -20 -10 0 -6 -11 -16 -25 -22 -37 -17 -30 -52 11 -56 19 -2 36 3 44 12 14 18 30 21 30 6 0 -5 -5 -10 -10 -10 -12 0 -28 -12 -71 -52 -15 -16 -33 -28 -39 -28 -6 0 -13 -7 -16 -15 -4 -8 -12 -15 -20 -15 -8 0 -14 -7 -14 -15 0 -9 -9 -15 -25 -15 -14 0 -25 -4 -25 -10 0 -5 -9 -10 -21 -10 -12 0 -23 -8 -26 -20 -3 -13 -14 -20 -29 -20 -13 0 -24 -4 -24 -10 0 -5 -11 -10 -25 -10 -14 0 -25 -4 -25 -10 0 -5 -9 -10 -20 -10 -10 0 -24 -9 -30 -20 -6 -11 -20 -20 -30 -20 -11 0 -20 -4 -20 -10 0 -5 -4 -10 -10 -10 -5 0 -10 9 -10 20 0 11 -7 23 -15 26 -8 4 -15 18 -15 33 0 15 -5 32 -12 39 -9 9 -9 12 0 12 7 0 12 11 12 25 0 13 7 28 15 32 10 6 15 29 16 78 2 114 2 115 -25 115 -14 0 -28 5 -31 10 -10 16 82 12 97 -5 30 -33 38 -45 38 -54 0 -5 9 -13 20 -16 11 -3 20 -11 20 -16 0 -5 41 -9 90 -9 53 0 90 4 90 10 0 6 7 10 15 10 8 0 20 9 27 20 7 11 18 20 25 20 7 0 13 5 13 10 0 6 7 10 15 10 8 0 15 7 15 15 0 8 5 15 10 15 6 0 10 7 10 15 0 8 7 15 15 15 8 0 15 5 15 10 0 6 25 10 58 9 51 0 54 -2 32 -12z"/>
<path d="M1807 3103 c-4 -3 -7 -21 -7 -40 0 -23 5 -33 15 -33 8 0 15 -7 15 -15 0 -8 5 -15 10 -15 6 0 10 -9 10 -21 0 -11 7 -27 15 -35 8 -9 15 -29 15 -45 0 -19 5 -29 15 -29 10 0 15 -10 15 -29 0 -17 5 -33 10 -36 6 -3 10 -26 10 -51 0 -32 4 -44 15 -44 11 0 15 -12 15 -50 0 -36 4 -52 15 -56 16 -6 22 -64 6 -64 -4 0 -20 9 -34 20 -14 11 -37 20 -51 20 -14 0 -26 5 -26 10 0 6 -25 10 -55 10 -30 0 -55 -4 -55 -10 0 -5 -5 -10 -11 -10 -6 0 -26 -16 -45 -35 -29 -31 -34 -42 -34 -85 0 -47 2 -50 25 -50 14 0 25 5 25 10 0 6 14 10 30 10 18 0 33 6 36 15 4 8 12 15 19 15 7 0 18 -7 25 -15 9 -11 34 -15 96 -15 49 0 84 -4 84 -10 0 -5 20 -10 45 -10 l45 0 0 43 c0 37 -3 44 -30 55 l-30 14 0 119 c0 73 -4 119 -10 119 -5 0 -10 23 -10 50 0 33 -5 52 -14 56 -8 3 -11 15 -8 30 3 17 0 24 -12 24 -10 0 -19 11 -22 30 -4 17 -10 30 -15 30 -5 0 -9 9 -9 20 0 11 -7 23 -15 26 -8 4 -15 12 -15 20 0 8 -5 14 -11 14 -7 0 -22 11 -35 25 -23 25 -44 31 -57 18z"/>
<path d="M1703 2908 c-31 -49 -46 -107 -23 -93 6 3 10 1 10 -4 0 -17 36 -49 57 -51 36 -4 54 0 48 11 -4 6 2 13 14 16 30 8 30 90 1 116 -24 20 -95 23 -107 5z"/>
<path d="M1352 2858 c-7 -7 -12 -38 -12 -70 0 -51 2 -58 20 -58 11 0 20 -4 20 -10 0 -5 14 -10 30 -10 17 0 30 5 30 10 0 6 9 10 20 10 18 0 20 7 20 58 0 32 -5 63 -12 70 -16 16 -100 16 -116 0z"/>
<path d="M1427 2560 c-9 -11 -24 -20 -32 -20 -8 0 -15 -4 -15 -10 0 -5 -7 -10 -15 -10 -8 0 -15 -4 -15 -10 0 -5 -11 -10 -24 -10 -16 0 -27 -7 -31 -20 -4 -13 -15 -20 -31 -20 -13 0 -24 -4 -24 -10 0 -6 -38 -10 -94 -10 -110 0 -125 -12 -77 -61 27 -27 35 -29 101 -29 54 0 72 4 76 15 5 11 22 15 64 15 39 0 64 5 74 15 8 8 32 15 55 15 23 0 41 5 41 10 0 6 27 10 60 10 33 0 60 -4 60 -10 0 -5 14 -10 30 -10 28 0 30 2 30 40 0 22 -4 40 -10 40 -5 0 -10 6 -10 13 0 7 -13 21 -30 30 -16 10 -30 25 -30 33 0 11 -15 14 -68 14 -55 0 -71 -4 -85 -20z"/>
</g>
</svg>
